<svg width="32.000000" height="32.000000" viewBox="0 0 32 32" fill="none" xmlns="http://www.w3.org/2000/svg" xmlns:xlink="http://www.w3.org/1999/xlink">
	<desc>
			Created with Pixso.
	</desc>
	<defs>
		<clipPath id="clip1_737">
			<rect id="IMAGE" width="32.000000" height="32.000000" fill="white" fill-opacity="0"/>
		</clipPath>
	</defs>
	<g clip-path="url(#clip1_737)">
		<path id="Vector" d="M28.9992 16C28.9927 19.1758 27.8271 22.2402 25.7211 24.6182C23.6152 26.9961 20.7138 28.5225 17.5616 28.9121C17.4913 28.9189 17.4203 28.9111 17.3531 28.8896C17.2859 28.8682 17.2239 28.832 17.1711 28.7852C17.1182 28.7383 17.0757 28.6807 17.0461 28.6172C17.0165 28.5527 17.0005 28.4834 16.9991 28.4121L16.9991 19L19.9991 19C20.1359 19 20.2713 18.9727 20.3968 18.918C20.5224 18.8643 20.6356 18.7852 20.7293 18.6855C20.823 18.5859 20.8953 18.4678 20.9417 18.3398C20.9882 18.2109 21.0077 18.0742 20.9991 17.9375C20.977 17.6787 20.8576 17.4385 20.6651 17.2646C20.4725 17.0898 20.2211 16.9961 19.9616 17L16.9991 17L16.9991 14C16.9991 13.4697 17.2099 12.9609 17.5849 12.5859C17.96 12.2109 18.4687 12 18.9991 12L20.9991 12C21.1359 12 21.2713 11.9727 21.3968 11.918C21.5224 11.8643 21.6356 11.7852 21.7293 11.6855C21.823 11.5859 21.8953 11.4678 21.9417 11.3398C21.9882 11.2109 22.0077 11.0742 21.9991 10.9375C21.977 10.6787 21.8576 10.4385 21.6651 10.2646C21.4725 10.0898 21.2211 9.99609 20.9616 10L18.9991 10C17.9383 10 16.9209 10.4219 16.1707 11.1719C15.4206 11.9219 14.9991 12.9395 14.9991 14L14.9991 17L11.9991 17C11.8624 17 11.727 17.0273 11.6015 17.082C11.4759 17.1357 11.3627 17.2148 11.269 17.3145C11.1753 17.4141 11.103 17.5322 11.0566 17.6602C11.0101 17.7891 10.9906 17.9258 10.9991 18.0625C11.0213 18.3213 11.1407 18.5615 11.3332 18.7354C11.5258 18.9092 11.7772 19.0039 12.0366 19L14.9991 19L14.9991 28.4121C14.9995 28.4824 14.9851 28.5518 14.9569 28.6162C14.9287 28.6807 14.8874 28.7383 14.8355 28.7852C14.7836 28.832 14.7224 28.8682 14.6559 28.8896C14.5893 28.9121 14.5189 28.9199 14.4491 28.9121C7.84915 28.1123 2.74915 22.375 3.01165 15.5127C3.159 12.123 4.62521 8.92578 7.09732 6.60352C9.56941 4.28027 12.8516 3.01562 16.2432 3.0791C19.6348 3.14258 22.8673 4.53027 25.2505 6.94434C27.6337 9.35742 28.979 12.6074 28.9992 16Z" fill="#D5E27B" fill-opacity="1.000000" fill-rule="nonzero"/>
	</g>
</svg>
