<svg width="90.000000" height="46.000000" viewBox="0 0 90 46" fill="none" xmlns="http://www.w3.org/2000/svg" xmlns:xlink="http://www.w3.org/1999/xlink">
	<desc>
			Created with Pixso.
	</desc>
	<defs>
		<clipPath id="clip1_730">
			<rect id="IMAGE" width="90.000000" height="46.000000" fill="white" fill-opacity="0"/>
		</clipPath>
	</defs>
	<g clip-path="url(#clip1_730)">
		<path id="Vector" d="M10.9432 27.3145C14.8526 30.7324 26.4066 36.4375 26.5934 36.5244C28.0999 37.2578 25.7343 40.8496 24.5515 40.8252C22.4847 40.8252 10.0717 33.3672 5.87586 29.6387C5.55216 32.4316 5.4356 35.2441 5.52722 38.0537C5.52722 38.9854 4.03319 39.0107 2.58894 39.0977C1.1447 39.1846 0.0988693 39.0977 0.024168 38.3643C-0.436497 23.8838 5.73888 9.50391 14.2425 2.60547C19.4965 -1.6582 28.4857 -1.03613 27.1535 7.06738C26.0455 13.7666 19.5464 23.0518 10.968 27.3145L10.9432 27.3145ZM6.94658 24.1953C16.3715 21.0625 24.9374 7.25391 22.1983 4.89258C19.4592 2.53125 10.3455 10.9326 6.94658 24.1953ZM88.1606 15.8301C87.0025 15.4199 85.3966 15.3945 85.1846 16.377C83.7528 22.8154 81.2752 29.875 78.3744 28.9805C77.1293 28.582 76.3326 27.2148 79.0468 18.9121C79.3458 17.9805 78.6362 17.5332 77.5778 17.1348C76.5193 16.7373 75.3241 16.9238 75.0875 17.583C72.1866 24.7168 69.8708 28.7686 67.7791 28.3584C65.4385 27.8867 68.9619 20.4785 69.4848 19.4092C70.0078 18.3408 68.6258 17.7939 67.941 17.5205C67.2563 17.2471 66.1357 16.7744 65.7498 17.5205C65.6003 17.7686 65.2642 18.4521 65.065 18.8506C65.177 15.9043 62.3508 14.2139 59.3378 15.5195C53.8472 17.9053 50.8965 23.9707 50.5229 27.5508C50.2988 29.6514 50.8466 32.0127 52.9383 33.0068C56.8602 34.8594 61.168 30.1729 62.3508 27.7119C62.2263 30.6582 64.1312 32.4727 66.5466 32.3857C69.8459 32.2734 72.224 29.0547 72.8963 27.625C72.3733 32.4854 76.9924 34.3369 80.3663 31.9756C78.3699 35.8242 75.8566 39.3828 72.8963 42.5527C72.0496 43.4854 73.22 44.6533 73.6434 45.0391C74.3405 45.7227 75.3612 46.2812 75.9593 45.8467C77.7645 44.6035 81.3131 40.6514 85.2598 32.9082C87.4361 28.2373 89.0048 23.3086 89.9286 18.2412C90.1778 16.998 89.8163 16.3896 88.2104 15.8301L88.1606 15.8301ZM55.8393 28.4336C54.8308 27.7246 55.8393 24.6172 57.0096 22.7783C58.6282 20.1055 61.1182 18.1299 62.189 18.9746C63.8449 20.2178 61.554 23.5117 60.3836 25.4629C59.2133 27.4141 57.1466 29.3525 55.8393 28.4336ZM42.2932 25.3008C38.4834 31.6025 33.578 33.5664 30.179 33.666C29.169 33.7148 28.1603 33.5469 27.2212 33.1729C26.282 32.7988 25.4344 32.2275 24.7355 31.498C24.0366 30.7686 23.5029 29.8975 23.1704 28.9443C22.8379 27.9912 22.7144 26.9775 22.8084 25.9727C22.9614 23.7119 23.741 21.5381 25.0602 19.6943C26.3794 17.8506 28.1861 16.4092 30.2786 15.5322C34.4246 13.9902 38.197 17.0107 37.3878 20.5029C37.1821 21.5391 36.7715 22.5234 36.1804 23.3984C35.5892 24.2734 34.8291 25.0225 33.9447 25.6016C33.0601 26.1797 32.0689 26.5771 31.029 26.7686C29.9891 26.96 28.9213 26.9434 27.8882 26.7178C28.0998 29.2041 30.7642 30.583 34.5242 28.6572C37.0143 27.4141 39.7782 24.9277 42.3928 18.6387C44.335 13.916 47.0991 4.20898 48.3316 2.05859C48.6927 1.4375 49.9751 1.61133 51.0708 2.14551C52.1664 2.67969 53.2869 3.4502 52.9383 4.41992C50.666 10.1494 48.9199 16.0742 47.7216 22.1191C46.7407 27.0566 46.864 32.1494 48.0826 37.0342C48.3566 38.0654 47.0493 38.7119 46.2525 38.874C45.7715 39.0166 45.2577 39.0039 44.784 38.8389C44.3103 38.6738 43.9006 38.3643 43.613 37.9541C41.5462 34.2256 41.7703 29.6387 42.2559 25.3262L42.2932 25.3008ZM27.801 23.9092C31.6357 25.1523 35.0346 20.9629 33.8518 19.2607C32.669 17.5576 28.3115 19.4346 27.801 23.9092Z" fill="#D5E27B" fill-opacity="1.000000" fill-rule="nonzero"/>
	</g>
</svg>
