<svg width="32.000000" height="32.000000" viewBox="0 0 32 32" fill="none" xmlns="http://www.w3.org/2000/svg" xmlns:xlink="http://www.w3.org/1999/xlink">
	<desc>
			Created with Pixso.
	</desc>
	<defs>
		<clipPath id="clip1_734">
			<rect id="IMAGE" width="32.000000" height="32.000000" fill="white" fill-opacity="0"/>
		</clipPath>
	</defs>
	<g clip-path="url(#clip1_734)">
		<path id="Vector" d="M16 20C18.2091 20 20 18.209 20 16C20 13.791 18.2091 12 16 12C13.7909 12 12 13.791 12 16C12 18.209 13.7909 20 16 20Z" fill="#D5E27B" fill-opacity="1.000000" fill-rule="nonzero"/>
		<path id="Vector" d="M21.5 3.5L10.5 3.5C8.64348 3.5 6.86301 4.2373 5.55025 5.5498C4.2375 6.86328 3.5 8.64355 3.5 10.5L3.5 21.5C3.5 23.3564 4.2375 25.1367 5.55025 26.4492C6.86301 27.7627 8.64348 28.5 10.5 28.5L21.5 28.5C23.3565 28.5 25.137 27.7627 26.4497 26.4492C27.7625 25.1367 28.5 23.3564 28.5 21.5L28.5 10.5C28.5 8.64355 27.7625 6.86328 26.4497 5.5498C25.137 4.2373 23.3565 3.5 21.5 3.5ZM16 22C14.8133 22 13.6533 21.6484 12.6666 20.9893C11.6799 20.3291 10.9108 19.3926 10.4567 18.2959C10.0026 17.1992 9.88378 15.9932 10.1153 14.8291C10.3468 13.666 10.9182 12.5967 11.7574 11.7578C12.5965 10.918 13.6656 10.3467 14.8295 10.1152C15.9933 9.88379 17.1997 10.0029 18.2961 10.457C19.3925 10.9111 20.3295 11.6797 20.9888 12.667C21.6481 13.6533 22 14.8135 22 16C22 17.5908 21.3679 19.1172 20.2426 20.2422C19.1174 21.3682 17.5913 22 16 22ZM22.5 11C22.2033 11 21.9133 10.9121 21.6666 10.7471C21.42 10.582 21.2277 10.3477 21.1142 10.0742C21.0007 9.7998 20.9709 9.49805 21.0288 9.20703C21.0867 8.91602 21.2296 8.64941 21.4393 8.43945C21.6491 8.22949 21.9164 8.08691 22.2074 8.0293C22.4983 7.9707 22.7999 8.00098 23.074 8.11426C23.3481 8.22754 23.5824 8.41992 23.7472 8.66699C23.912 8.91309 24 9.20312 24 9.5C24 9.89746 23.842 10.2793 23.5607 10.5605C23.2794 10.8418 22.8978 11 22.5 11Z" fill="#D5E27B" fill-opacity="1.000000" fill-rule="nonzero"/>
	</g>
</svg>
