<svg width="32.000000" height="32.000000" viewBox="0 0 32 32" fill="none" xmlns="http://www.w3.org/2000/svg" xmlns:xlink="http://www.w3.org/1999/xlink">
	<desc>
			Created with Pixso.
	</desc>
	<defs>
		<clipPath id="clip1_739">
			<rect id="IMAGE" width="32.000000" height="32.000000" fill="white" fill-opacity="0"/>
		</clipPath>
	</defs>
	<g clip-path="url(#clip1_739)">
		<path id="Vector" d="M26.5 3.5L5.5 3.5C4.96957 3.5 4.46086 3.71094 4.08578 4.08594C3.71071 4.46094 3.5 4.96973 3.5 5.5L3.5 26.5C3.5 27.0303 3.71071 27.5391 4.08578 27.9141C4.46086 28.2891 4.96957 28.5 5.5 28.5L26.5 28.5C27.0304 28.5 27.5391 28.2891 27.9142 27.9141C28.2893 27.5391 28.5 27.0303 28.5 26.5L28.5 5.5C28.5 4.96973 28.2893 4.46094 27.9142 4.08594C27.5391 3.71094 27.0304 3.5 26.5 3.5ZM12 22C12 22.2656 11.8946 22.5195 11.7071 22.707C11.5196 22.8945 11.2652 23 11 23C10.7348 23 10.4804 22.8945 10.2929 22.707C10.1054 22.5195 10 22.2656 10 22L10 14C10 13.7344 10.1054 13.4805 10.2929 13.293C10.4804 13.1055 10.7348 13 11 13C11.2652 13 11.5196 13.1055 11.7071 13.293C11.8946 13.4805 12 13.7344 12 14L12 22ZM11 11.5C10.7033 11.5 10.4133 11.4121 10.1666 11.2471C9.91997 11.082 9.72771 10.8477 9.61418 10.5742C9.50066 10.2998 9.47095 9.99805 9.52882 9.70703C9.5867 9.41602 9.72955 9.14941 9.93935 8.93945C10.1491 8.72949 10.4164 8.58691 10.7074 8.5293C10.9983 8.4707 11.2999 8.50098 11.574 8.61426C11.8481 8.72754 12.0824 8.91992 12.2472 9.16699C12.412 9.41309 12.5 9.70312 12.5 10C12.5 10.3975 12.342 10.7793 12.0607 11.0605C11.7794 11.3418 11.3978 11.5 11 11.5ZM23 22C23 22.2656 22.8946 22.5195 22.7071 22.707C22.5196 22.8945 22.2652 23 22 23C21.7348 23 21.4804 22.8945 21.2929 22.707C21.1054 22.5195 21 22.2656 21 22L21 17.5C21 16.8369 20.7366 16.2012 20.2678 15.7324C19.7989 15.2637 19.163 15 18.5 15C17.837 15 17.2011 15.2637 16.7322 15.7324C16.2634 16.2012 16 16.8369 16 17.5L16 22C16 22.2656 15.8946 22.5195 15.7071 22.707C15.5196 22.8945 15.2652 23 15 23C14.7348 23 14.4804 22.8945 14.2929 22.707C14.1054 22.5195 14 22.2656 14 22L14 14C13.9993 13.7539 14.0894 13.5166 14.253 13.332C14.4166 13.1484 14.6423 13.0312 14.8868 13.0039C15.1313 12.9756 15.3775 13.0391 15.5783 13.1816C15.7791 13.3232 15.9203 13.5352 15.975 13.7754C16.6516 13.3164 17.4405 13.0508 18.2567 13.0068C19.073 12.9619 19.8859 13.1416 20.6081 13.5244C21.3303 13.9072 21.9346 14.4795 22.356 15.1797C22.7774 15.8809 23 16.6826 23 17.5L23 22Z" fill="#D5E27B" fill-opacity="1.000000" fill-rule="nonzero"/>
	</g>
</svg>
