<svg width="85.000168" height="63.999992" viewBox="0 0 85.0002 64" fill="none" xmlns="http://www.w3.org/2000/svg" xmlns:xlink="http://www.w3.org/1999/xlink">
	<desc>
			Created with Pixso.
	</desc>
	<defs/>
	<path id="Vector" d="M10.3352 38.003C14.0275 42.7585 24.9396 50.6958 25.116 50.8169C26.5388 51.8372 24.3046 56.8348 23.1875 56.8002C21.2355 56.8002 9.51213 46.4246 5.54943 41.2366C5.24371 45.1219 5.13362 49.0348 5.22015 52.9439C5.22015 54.2408 3.80912 54.2754 2.44511 54.3965C1.0811 54.5175 0.0933771 54.3965 0.0228243 53.3762C-0.412247 33.2301 5.42005 13.2224 13.4512 3.62493C18.4134 -2.30649 26.9032 -1.44186 25.645 9.83302C24.5985 19.1539 18.4605 32.0715 10.3587 38.003L10.3352 38.003ZM6.56066 33.6624C15.462 29.3047 23.552 10.0924 20.9651 6.80679C18.3781 3.52116 9.77079 15.211 6.56066 33.6624ZM83.2628 22.0244C82.169 21.4537 80.6524 21.4191 80.4522 22.7852C79.0999 31.743 76.7599 41.5652 74.0202 40.3202C72.8443 39.7668 72.0919 37.8646 74.6553 26.313C74.9377 25.0161 74.2675 24.3935 73.2679 23.8402C72.2683 23.2868 71.1394 23.5462 70.916 24.4627C68.1762 34.3887 65.9891 40.0262 64.0136 39.4555C61.803 38.7984 65.1307 28.4919 65.6246 27.0047C66.1185 25.5175 64.8133 24.7566 64.1665 24.3763C63.5198 23.9958 62.4615 23.3386 62.097 24.3763C61.9559 24.7221 61.6384 25.6732 61.4503 26.2266C61.5561 22.1282 58.8869 19.7763 56.0413 21.5921C50.8557 24.9123 48.0689 33.3512 47.7161 38.3316C47.5045 41.254 48.0218 44.5396 49.9973 45.923C53.7013 48.4996 57.7698 41.9803 58.8869 38.5563C58.7693 42.6548 60.5684 45.1795 62.8496 45.0584C65.9656 44.9027 68.2115 40.4239 68.8465 38.4353C68.3526 45.1967 72.715 47.7733 75.9015 44.4877C74.016 49.8425 71.6424 54.7935 68.8465 59.2038C68.0469 60.5007 69.1522 62.1263 69.5521 62.6624C70.2105 63.6135 71.1745 64.3917 71.7393 63.7864C73.4442 62.0572 76.7957 56.558 80.5231 45.7847C82.5786 39.2872 84.0601 32.4297 84.9326 25.3792C85.1679 23.65 84.8265 22.8026 83.3098 22.0244L83.2628 22.0244ZM52.7371 39.5593C51.7847 38.5736 52.7371 34.2504 53.8424 31.6911C55.371 27.9732 57.7227 25.2235 58.734 26.3995C60.2979 28.1287 58.1343 32.7113 57.029 35.4263C55.9237 38.1412 53.9718 40.8389 52.7371 39.5593ZM39.9436 35.2015C36.3454 43.9689 31.7125 46.7012 28.5024 46.8395C27.5485 46.9076 26.5959 46.6733 25.7089 46.153C24.8219 45.6325 24.0214 44.8379 23.3613 43.823C22.7013 42.8079 22.1972 41.5964 21.8831 40.27C21.5691 38.9437 21.4525 37.5336 21.5412 36.1353C21.6857 32.9901 22.4221 29.9659 23.668 27.4008C24.9138 24.8356 26.6202 22.8305 28.5965 21.6094C32.5121 19.4651 36.075 23.6672 35.3107 28.5264C35.1164 29.9673 34.7287 31.3366 34.1704 32.5543C33.612 33.7722 32.8942 34.8141 32.0588 35.6192C31.2234 36.4243 30.2873 36.9763 29.3052 37.243C28.3231 37.5099 27.3146 37.4859 26.3388 37.1728C26.5387 40.6314 29.0551 42.5509 32.6062 39.8706C34.958 38.1413 37.5683 34.6827 40.0377 25.9326C41.872 19.3613 44.4825 5.85569 45.6465 2.86404C45.9876 1.9994 47.1987 2.24152 48.2335 2.9851C49.2682 3.72869 50.3265 4.80081 49.9973 6.14965C47.8512 14.1215 46.2021 22.3638 45.0704 30.7746C44.144 37.6443 44.2604 44.73 45.4114 51.5259C45.6701 52.9612 44.4355 53.8604 43.6829 54.0852C43.2286 54.2837 42.7434 54.2668 42.296 54.0372C41.8486 53.8075 41.4617 53.3766 41.19 52.8056C39.2381 47.6178 39.4497 41.2366 39.9083 35.2361L39.9436 35.2015ZM26.2565 33.2647C29.8781 34.994 33.0883 29.1663 31.9712 26.7972C30.8541 24.4281 26.7386 27.0393 26.2565 33.2647Z" fill="#004822" fill-opacity="1.000000" fill-rule="nonzero"/>
</svg>
