<svg width="32.000000" height="32.000000" viewBox="0 0 32 32" fill="none" xmlns="http://www.w3.org/2000/svg" xmlns:xlink="http://www.w3.org/1999/xlink">
	<desc>
			Created with Pixso.
	</desc>
	<defs>
		<clipPath id="clip1_741">
			<rect id="IMAGE" width="32.000000" height="32.000000" fill="white" fill-opacity="0"/>
		</clipPath>
	</defs>
	<g clip-path="url(#clip1_741)">
		<path id="Vector" d="M30.7128 9.71289L26.9378 13.4746C26.1878 22.2129 18.8128 29 10.0003 29C8.18784 29 6.68784 28.7129 5.55034 28.1504C4.63783 27.6875 4.26283 27.2002 4.16283 27.0498C4.08009 26.9248 4.02678 26.7812 4.00687 26.6328C3.98694 26.4834 4.00093 26.332 4.04779 26.1885C4.09465 26.0459 4.17317 25.915 4.2775 25.8066C4.38182 25.6982 4.50926 25.6152 4.65033 25.5625C4.67534 25.5498 7.62534 24.4248 9.53783 22.2627C8.35176 21.418 7.30927 20.3887 6.45033 19.2129C4.73784 16.8877 2.92534 12.8496 4.01283 6.8252C4.04703 6.64648 4.12894 6.47949 4.24995 6.34277C4.37097 6.20703 4.52657 6.10547 4.70033 6.0498C4.87465 5.99316 5.06131 5.98535 5.2399 6.02734C5.41846 6.06836 5.58208 6.15918 5.71283 6.28809C5.75034 6.33789 9.91283 10.4375 15.0003 11.7627L15.0003 11C15.0052 10.207 15.1663 9.42285 15.4742 8.69238C15.7822 7.96191 16.231 7.29883 16.7952 6.74219C17.3593 6.18457 18.0276 5.74414 18.762 5.44531C19.4964 5.14648 20.2825 4.99512 21.0753 5C22.1159 5.01465 23.135 5.29883 24.0331 5.8252C24.9313 6.35059 25.6779 7.09961 26.2003 8L30.0003 8C30.1978 7.99902 30.3909 8.05762 30.5556 8.16602C30.7202 8.27539 30.8488 8.43066 30.9253 8.6123C30.9974 8.79688 31.0157 8.99902 30.9781 9.19336C30.9404 9.3877 30.8485 9.56836 30.7128 9.71289Z" fill="#D5E27B" fill-opacity="1.000000" fill-rule="nonzero"/>
	</g>
</svg>
