<svg width="32.000000" height="32.000000" viewBox="0 0 32 32" fill="none" xmlns="http://www.w3.org/2000/svg" xmlns:xlink="http://www.w3.org/1999/xlink">
	<desc>
			Created with Pixso.
	</desc>
	<defs>
		<clipPath id="clip1_732">
			<rect id="IMAGE" width="32.000000" height="32.000000" fill="white" fill-opacity="0"/>
		</clipPath>
	</defs>
	<g clip-path="url(#clip1_732)">
		<path id="Vector" d="M29.2875 8.72461C29.1726 8.26367 28.9477 7.83789 28.632 7.4834C28.3163 7.12793 27.9193 6.85547 27.475 6.6875C23.2 5.03711 16.375 5.0498 16 5.0498C15.625 5.0498 8.8 5.03711 4.525 6.6875C4.08068 6.85547 3.68366 7.12793 3.36799 7.4834C3.05231 7.83789 2.82739 8.26367 2.7125 8.72461C2.3875 9.96191 2 12.2373 2 16C2 19.7627 2.3875 22.0371 2.7125 23.2744C2.82739 23.7354 3.05231 24.1621 3.36799 24.5166C3.68366 24.8711 4.08068 25.1445 4.525 25.3125C8.625 26.8994 15.05 26.9502 15.9125 26.9502L16.0875 26.9502C16.95 26.9502 23.375 26.8994 27.475 25.3125C27.9193 25.1445 28.3163 24.8711 28.632 24.5166C28.9477 24.1621 29.1726 23.7354 29.2875 23.2744C29.6125 22.0371 30 19.7627 30 16C30 12.2373 29.6125 9.96191 29.2875 8.72461ZM20.275 16.4121L14.275 20.4121C14.1954 20.4707 14.0988 20.502 14 20.5C13.9172 20.4971 13.8361 20.4756 13.7625 20.4375C13.6826 20.3955 13.6158 20.333 13.5694 20.2559C13.5231 20.1787 13.4991 20.0898 13.5 20L13.5 12C13.4991 11.9102 13.5231 11.8213 13.5694 11.7441C13.6158 11.667 13.6826 11.6035 13.7625 11.5625C13.8422 11.5195 13.932 11.5 14.0222 11.5039C14.1124 11.5088 14.1998 11.5371 14.275 11.5869L20.275 15.5869C20.3447 15.6309 20.4022 15.6924 20.442 15.7646C20.4818 15.8359 20.5027 15.917 20.5027 16C20.5027 16.082 20.4818 16.1631 20.442 16.2354C20.4022 16.3076 20.3447 16.3682 20.275 16.4121Z" fill="#D5E27B" fill-opacity="1.000000" fill-rule="nonzero"/>
	</g>
</svg>
